<svg class="svg-icon" style="width: 1em; height: 1em;vertical-align: middle;fill: #ffffff;overflow: hidden;" viewBox="0 0 1024 1024" version="1.1" xmlns="http://www.w3.org/2000/svg"><path d="M314.026667 870.4h395.946666c51.2 0 102.4-20.48 139.946667-58.026667l68.266667-68.266666c37.546667-37.546667 58.026667-85.333333 58.026666-139.946667 0-47.786667-17.066667-95.573333-51.2-133.12l-160.426666-174.08c-13.653333-13.653333-44.373333-17.066667-61.44 0s-17.066667 44.373333 0 61.44l3.413333 3.413333c6.826667 6.826667 6.826667 17.066667 0 23.893334-6.826667 6.826667-17.066667 6.826667-23.893333 0l-3.413334-3.413334-40.96-40.96c-17.066667-17.066667-44.373333-17.066667-61.44 0s-17.066667 44.373333 0 61.44l44.373334 44.373334c6.826667 6.826667 6.826667 17.066667 0 23.893333s-17.066667 6.826667-23.893334 0l-88.746666-88.746667c-17.066667-17.066667-44.373333-17.066667-61.44 0s-17.066667 44.373333 0 61.44l88.746666 88.746667c6.826667 6.826667 6.826667 17.066667 0 23.893333s-17.066667 6.826667-23.893333 0L296.96 341.333333c-10.24-3.413333-20.48-10.24-30.72-10.24s-23.893333 3.413333-30.72 13.653334c-6.826667 6.826667-13.653333 20.48-13.653333 30.72s3.413333 23.893333 13.653333 30.72l320.853333 320.853333c3.413333 3.413333 6.826667 10.24 3.413334 17.066667s-6.826667 10.24-13.653334 10.24l-204.8 34.133333c-27.306667 3.413333-47.786667 27.306667-47.786666 54.613333-3.413333 17.066667 6.826667 27.306667 20.48 27.306667z" fill="" /><path d="M167.253333 515.413333h-6.826666c-68.266667-30.72-109.226667-98.986667-109.226667-170.666666C51.2 238.933333 136.533333 153.6 238.933333 153.6c75.093333 0 139.946667 44.373333 170.666667 109.226667 3.413333 10.24 0 17.066667-10.24 23.893333-10.24 3.413333-17.066667 0-23.893333-10.24-20.48-54.613333-78.506667-88.746667-136.533334-88.746667-85.333333 0-153.6 68.266667-153.6 153.6 0 61.44 34.133333 116.053333 92.16 139.946667 10.24 3.413333 13.653333 13.653333 10.24 23.893333-6.826667 3.413333-13.653333 10.24-20.48 10.24z" fill="" /></svg>
