<svg class="svg-icon" style="width: 1em; height: 1em;vertical-align: middle;fill: #ffffff;overflow: hidden;" viewBox="0 0 1024 1024" version="1.1" xmlns="http://www.w3.org/2000/svg"><path d="M477.866667 17.066667c-85.333333 0-153.6 68.266667-153.6 153.6s68.266667 153.6 153.6 153.6 153.6-68.266667 153.6-153.6S563.2 17.066667 477.866667 17.066667z m64.853333 218.453333c-3.413333 3.413333-10.24 3.413333-13.653333 3.413333s-10.24 0-13.653334-3.413333l-51.2-51.2c-3.413333-3.413333-3.413333-6.826667-3.413333-13.653333V102.4c0-10.24 6.826667-17.066667 17.066667-17.066667s17.066667 6.826667 17.066666 17.066667v61.44l47.786667 47.786667c6.826667 3.413333 6.826667 17.066667 0 23.893333zM314.026667 1006.933333h395.946666c51.2 0 102.4-20.48 139.946667-58.026666l68.266667-68.266667c37.546667-37.546667 58.026667-85.333333 58.026666-139.946667 0-47.786667-17.066667-95.573333-51.2-133.12l-160.426666-174.08c-13.653333-13.653333-44.373333-17.066667-61.44 0s-17.066667 44.373333 0 61.44l3.413333 3.413334c6.826667 6.826667 6.826667 17.066667 0 23.893333-6.826667 6.826667-17.066667 6.826667-23.893333 0L638.293333 477.866667c-17.066667-17.066667-44.373333-17.066667-61.44 0s-17.066667 44.373333 0 61.44l44.373334 44.373333c3.413333 3.413333 3.413333 6.826667 3.413333 13.653333s0 10.24-3.413333 13.653334c-6.826667 6.826667-17.066667 6.826667-23.893334 0l-88.746666-88.746667c-17.066667-17.066667-44.373333-17.066667-61.44 0s-17.066667 44.373333 0 61.44l88.746666 88.746667c3.413333 3.413333 3.413333 6.826667 3.413334 13.653333s0 10.24-3.413334 13.653333c-6.826667 6.826667-17.066667 6.826667-23.893333 0l-215.04-215.04c-6.826667-6.826667-20.48-13.653333-30.72-13.653333s-23.893333 3.413333-30.72 13.653333c-17.066667 17.066667-17.066667 44.373333 0 61.44l320.853333 320.853334c3.413333 3.413333 6.826667 10.24 3.413334 17.066666s-6.826667 10.24-13.653334 10.24l-204.8 34.133334c-27.306667 3.413333-47.786667 27.306667-47.786666 54.613333-3.413333 13.653333 6.826667 23.893333 20.48 23.893333z" fill="" /><path d="M167.253333 651.946667h-6.826666c-68.266667-30.72-109.226667-98.986667-109.226667-170.666667C51.2 375.466667 136.533333 290.133333 238.933333 290.133333c75.093333 0 139.946667 44.373333 170.666667 109.226667 3.413333 10.24 0 17.066667-10.24 23.893333-10.24 3.413333-17.066667 0-23.893333-10.24-20.48-54.613333-78.506667-88.746667-136.533334-88.746666-85.333333 0-153.6 68.266667-153.6 153.6 0 61.44 34.133333 116.053333 92.16 139.946666 10.24 3.413333 13.653333 13.653333 10.24 23.893334-6.826667 3.413333-13.653333 10.24-20.48 10.24z" fill="" /></svg>
